<?xml version="1.0" encoding="UTF-8" standalone="no"?>
<svg
   xmlns:dc="http://purl.org/dc/elements/1.1/"
   xmlns:cc="http://creativecommons.org/ns#"
   xmlns:rdf="http://www.w3.org/1999/02/22-rdf-syntax-ns#"
   xmlns:svg="http://www.w3.org/2000/svg"
   xmlns="http://www.w3.org/2000/svg"
   style="fill:none"
   id="svg15"
   version="1.1"
   viewBox="0 0 143.37703 51.852509"
   height="51.852509"
   width="143.37703">
  <metadata
     id="metadata19">
    <rdf:RDF>
      <cc:Work
         rdf:about="">
        <dc:format>image/svg+xml</dc:format>
        <dc:type
           rdf:resource="http://purl.org/dc/dcmitype/StillImage" />
        <dc:title></dc:title>
      </cc:Work>
    </rdf:RDF>
  </metadata>
  <g
     transform="translate(-0.292969,-3.03809)"
     id="g8"
     clip-path="url(#clip0_3_59)">
    <path
       style="fill:#ffffff"
       id="path2"
       d="m 16.5967,26.2998 c -0.6348,0 -1.2793,-0.0586 -1.9336,-0.1758 -0.6445,-0.1074 -1.2988,-0.2539 -1.9629,-0.4394 -0.6641,-0.1758 -1.3281,-0.3711 -1.9922,-0.586 -0.6641,-0.2148 -1.31835,-0.4248 -1.96288,-0.6298 -0.77149,0.4687 -1.57715,0.8349 -2.417,1.0986 -0.83984,0.2734 -1.72363,0.4101 -2.65136,0.4101 -0.79102,0 -1.39649,-0.1416 -1.81641,-0.4248 -0.41992,-0.2832 -0.62988,-0.6591 -0.62988,-1.1279 0,-0.6152 0.3418,-1.0889 1.02539,-1.4209 0.68359,-0.332 1.71875,-0.498 3.10547,-0.498 0.60547,0 1.21582,0.0439 1.83105,0.1318 0.61524,0.0879 1.24024,0.2002 1.875,0.3369 0.61524,-0.5371 1.20122,-1.1426 1.75782,-1.8164 0.5566,-0.6738 1.0986,-1.3965 1.626,-2.168 -0.4004,0.0489 -0.8057,0.0879 -1.2158,0.1172 -0.4102,0.0196 -0.8252,0.0293 -1.24517,0.0293 -1.5332,0 -2.90039,-0.1806 -4.10156,-0.542 C 4.6875,18.2236 3.67188,17.7207 2.8418,17.0859 2.01172,16.4414 1.37695,15.6895 0.9375,14.8301 0.507812,13.9609 0.292969,13.0283 0.292969,12.0322 c 0,-1.1718 0.224609,-2.21189 0.673828,-3.12009 C 1.41602,8.00391 2.03125,7.24219 2.8125,6.62695 3.60352,6.00195 4.53125,5.52832 5.5957,5.20605 6.66016,4.87402 7.80273,4.70801 9.02344,4.70801 c 0.77148,0 1.47456,0.05859 2.10936,0.17578 0.6348,0.11719 1.1817,0.24414 1.6406,0.38086 0.4688,0.13672 0.835,0.26855 1.0987,0.39551 0.2636,0.12695 0.4101,0.19531 0.4394,0.20507 l -0.3808,0.65918 c -0.0098,0 -0.1319,-0.05371 -0.3662,-0.16113 C 13.3301,6.24609 13.0078,6.12402 12.5977,5.99707 12.1875,5.87012 11.6992,5.75293 11.1328,5.64551 10.5664,5.53809 9.95605,5.48438 9.30176,5.48438 8.14941,5.48438 7.11426,5.65527 6.19629,5.99707 5.28809,6.3291 4.5166,6.78809 3.88184,7.37402 3.25684,7.95996 2.77344,8.64844 2.43164,9.43945 2.09961,10.2207 1.93359,11.0557 1.93359,11.9443 c 0,0.9961 0.2295,1.8897 0.68848,2.6807 0.45898,0.7812 1.07422,1.4453 1.8457,1.9922 0.77149,0.5371 1.66504,0.9473 2.68067,1.2305 1.02539,0.2832 2.09961,0.4248 3.22266,0.4248 0.459,0 0.9082,-0.0147 1.3477,-0.044 0.4492,-0.0293 0.8935,-0.0781 1.333,-0.1465 0.6933,-1.084 1.3623,-2.207 2.0068,-3.3691 0.6543,-1.1621 1.3037,-2.2998 1.9482,-3.4131 0.6446,-1.1133 1.294,-2.16796 1.9483,-3.16406 0.6543,-1.00586 1.333,-1.88476 2.0361,-2.63672 0.7129,-0.75195 1.46,-1.34765 2.2412,-1.78711 0.7813,-0.44921 1.6211,-0.67382 2.5196,-0.67382 0.3515,0 0.6787,0.05859 0.9814,0.17578 0.3027,0.10742 0.5664,0.27832 0.791,0.51269 0.2246,0.22461 0.4004,0.5127 0.5274,0.86426 0.1269,0.35156 0.1904,0.76172 0.1904,1.23047 0,0.76172 -0.1465,1.56738 -0.4395,2.41699 -0.2929,0.83984 -0.7177,1.68457 -1.2744,2.53422 -0.5566,0.8398 -1.2353,1.6699 -2.0361,2.4902 -0.8008,0.8105 -1.709,1.5625 -2.7246,2.2559 -1.0156,0.6933 -2.1289,1.3134 -3.3399,1.8603 -1.2109,0.5371 -2.5,0.957 -3.8672,1.2598 -0.6445,0.8886 -1.3085,1.7285 -1.9921,2.5195 -0.6836,0.7813 -1.4063,1.4893 -2.168,2.124 0.7422,0.1953 1.4697,0.4053 2.1826,0.6299 0.7129,0.2149 1.3867,0.4102 2.0215,0.5859 0.6445,0.1856 1.2402,0.337 1.7871,0.4541 0.5469,0.127 1.0303,0.1905 1.4502,0.1905 0.625,0 1.2256,-0.1074 1.8018,-0.3223 0.5859,-0.2148 1.1669,-0.5957 1.7431,-1.1426 l 0.6006,0.4688 c -0.0098,0.0097 -0.0635,0.0732 -0.1611,0.1904 -0.0977,0.1074 -0.2442,0.2393 -0.4395,0.3955 -0.1953,0.166 -0.4394,0.3369 -0.7324,0.5127 -0.293,0.1856 -0.6397,0.3565 -1.04,0.5127 -0.3907,0.1563 -0.8399,0.2832 -1.3477,0.3809 -0.498,0.1074 -1.0547,0.1611 -1.6699,0.1611 z M 25.8105,3.84375 c -0.5468,0 -1.0888,0.19531 -1.6259,0.58594 -0.5371,0.39062 -1.0791,0.92285 -1.626,1.59668 -0.5469,0.66406 -1.1035,1.45019 -1.6699,2.3584 -0.5567,0.89843 -1.1328,1.86033 -1.7285,2.88573 -0.5957,1.0156 -1.2159,2.0654 -1.8604,3.1494 -0.6445,1.084 -1.3184,2.1485 -2.0215,3.1934 1.1719,-0.3223 2.2852,-0.7422 3.3399,-1.2598 1.0644,-0.5176 2.0459,-1.0986 2.9443,-1.7431 0.9082,-0.6446 1.7236,-1.3331 2.4463,-2.0655 0.7324,-0.7422 1.3525,-1.499 1.8603,-2.2705 C 26.3867,9.50293 26.7822,8.74121 27.0557,7.98926 27.3291,7.22754 27.4658,6.5 27.4658,5.80664 27.4658,5.44531 27.4219,5.14258 27.334,4.89844 27.2461,4.64453 27.124,4.43945 26.9678,4.2832 26.8213,4.12695 26.6455,4.01465 26.4404,3.94629 26.2451,3.87793 26.0352,3.84375 25.8105,3.84375 Z M 3.58887,25.2158 c 0.72265,0 1.40625,-0.1025 2.05078,-0.3076 0.64453,-0.1953 1.26953,-0.4687 1.875,-0.8203 C 6.87012,23.9023 6.24512,23.751 5.63965,23.6338 5.04395,23.5166 4.46777,23.458 3.91113,23.458 c -0.66406,0 -1.15234,0.0977 -1.46484,0.293 -0.30274,0.1953 -0.4541,0.4199 -0.4541,0.6738 0,0.0781 0.01953,0.1611 0.05859,0.249 0.04883,0.0977 0.13184,0.1856 0.24902,0.2637 0.11719,0.0781 0.27832,0.1416 0.4834,0.1904 0.20508,0.0586 0.47364,0.0879 0.80567,0.0879 z m 27.37793,-3.999 c -0.4492,0.5273 -0.8936,1.0156 -1.333,1.4648 -0.4395,0.4395 -0.8789,0.8204 -1.3184,1.1426 -0.4297,0.3125 -0.8593,0.5567 -1.289,0.7324 -0.4297,0.1856 -0.8643,0.2784 -1.3037,0.2784 -0.3711,0 -0.7081,-0.0684 -1.0108,-0.2051 -0.293,-0.127 -0.5469,-0.3076 -0.7617,-0.542 -0.2246,-0.2441 -0.3955,-0.5371 -0.5127,-0.8789 -0.1172,-0.3516 -0.1758,-0.7422 -0.1758,-1.1719 0,-0.6738 0.1514,-1.3672 0.4541,-2.0801 0.293,-0.7129 0.6641,-1.4062 1.1133,-2.08 0.459,-0.6739 0.9619,-1.3135 1.5088,-1.919 0.5566,-0.6055 1.084,-1.1426 1.582,-1.6113 l 0.6299,0.4394 c -0.3516,0.5176 -0.7471,1.1035 -1.1865,1.7578 -0.4297,0.6543 -0.8399,1.3331 -1.2305,2.0362 -0.3808,0.6933 -0.7031,1.3916 -0.9668,2.0947 -0.2637,0.6934 -0.3955,1.3379 -0.3955,1.9336 0,0.4004 0.0733,0.7422 0.2197,1.0254 0.1563,0.2832 0.4493,0.4248 0.8789,0.4248 0.4688,0 0.9815,-0.1856 1.5381,-0.5566 0.5664,-0.3711 1.1426,-0.8545 1.7285,-1.4502 0.5957,-0.5957 1.1866,-1.2647 1.7725,-2.0069 0.5957,-0.7519 1.1572,-1.5088 1.6846,-2.2705 0.5273,-0.7617 1.0058,-1.4892 1.4355,-2.1826 0.4395,-0.6934 0.7959,-1.2842 1.0694,-1.7725 l 1.0693,0.5274 c -0.5664,1.1133 -1.1133,2.1533 -1.6406,3.1201 -0.5176,0.957 -0.9815,1.8213 -1.3916,2.5928 -0.4004,0.7617 -0.7227,1.4258 -0.9668,1.9922 -0.2344,0.5664 -0.3516,1.0156 -0.3516,1.3476 0,0.1367 0.0293,0.249 0.0879,0.3369 0.0586,0.0879 0.1514,0.1319 0.2783,0.1319 0.3613,0.0097 0.7569,-0.1465 1.1865,-0.4688 0.4395,-0.3223 0.8789,-0.7275 1.3184,-1.2158 0.4492,-0.4883 0.8838,-1.0205 1.3037,-1.5967 0.4297,-0.5859 0.8154,-1.1328 1.1572,-1.6406 l 0.5274,0.4101 c -0.0586,0.0977 -0.1807,0.2979 -0.3662,0.6006 -0.1856,0.3028 -0.4151,0.6494 -0.6885,1.0401 -0.2734,0.3906 -0.5859,0.8008 -0.9375,1.2304 -0.3516,0.4297 -0.7227,0.8252 -1.1133,1.1866 -0.3906,0.3515 -0.7959,0.6445 -1.2158,0.8789 -0.4199,0.2246 -0.835,0.3369 -1.2451,0.3369 -0.2539,0 -0.4834,-0.044 -0.6885,-0.1319 -0.1953,-0.0878 -0.3613,-0.205 -0.498,-0.3515 C 30.7861,24 30.6787,23.8291 30.6006,23.6338 c -0.0781,-0.1953 -0.1172,-0.4004 -0.1172,-0.6152 0,-0.254 0.0391,-0.5323 0.1172,-0.835 0.0879,-0.3027 0.2099,-0.625 0.3662,-0.9668 z m 14.4434,-5.6982 c 0.0586,-0.1563 0.0878,-0.3223 0.0878,-0.4981 0,-0.3125 -0.1269,-0.5566 -0.3808,-0.7324 -0.2442,-0.1856 -0.6348,-0.2783 -1.1719,-0.2783 -0.4394,0 -0.8838,0.0976 -1.333,0.2929 -0.4394,0.1856 -0.8643,0.4444 -1.2744,0.7764 -0.4102,0.332 -0.7959,0.7275 -1.1572,1.1865 -0.3516,0.459 -0.6592,0.9571 -0.9229,1.4942 -0.2539,0.5371 -0.459,1.1084 -0.6152,1.7138 -0.1465,0.5957 -0.2197,1.1963 -0.2197,1.8018 0,0.4883 0.0537,0.9033 0.1611,1.2451 0.1074,0.3418 0.2588,0.6201 0.4541,0.835 0.1953,0.2148 0.4297,0.3711 0.7031,0.4687 0.2734,0.0879 0.5811,0.1319 0.9229,0.1319 0.6738,0 1.3281,-0.1514 1.9629,-0.4541 0.6347,-0.3028 1.2353,-0.6934 1.8017,-1.1719 0.5762,-0.4883 1.1035,-1.0303 1.582,-1.626 0.4883,-0.5957 0.918,-1.1816 1.2891,-1.7578 l 0.542,0.4101 c -0.5273,0.8887 -1.0889,1.67 -1.6846,2.3438 -0.5957,0.6641 -1.206,1.2207 -1.831,1.6699 -0.625,0.4492 -1.2598,0.7861 -1.9043,1.0108 -0.6446,0.2246 -1.2744,0.3369 -1.8897,0.3369 -0.4883,0 -0.957,-0.0733 -1.4062,-0.2198 -0.4395,-0.1464 -0.8301,-0.3662 -1.1719,-0.6591 -0.332,-0.3028 -0.6006,-0.6885 -0.8057,-1.1573 -0.1953,-0.4687 -0.2929,-1.0254 -0.2929,-1.6699 0,-0.7617 0.1074,-1.4795 0.3222,-2.1533 0.2246,-0.6836 0.5176,-1.3135 0.8789,-1.8896 0.3711,-0.5762 0.7959,-1.0938 1.2745,-1.5528 0.4785,-0.4687 0.9765,-0.8642 1.4941,-1.1865 0.5273,-0.3223 1.0547,-0.5664 1.582,-0.7324 0.5371,-0.1758 1.0401,-0.2637 1.5088,-0.2637 0.4785,0 0.8692,0.0684 1.1719,0.2051 0.3027,0.1269 0.542,0.2832 0.7178,0.4687 0.1757,0.1856 0.2929,0.3809 0.3515,0.586 0.0684,0.205 0.1026,0.3808 0.1026,0.5273 0,0.2344 -0.0342,0.4834 -0.1026,0.7471 -0.0683,0.2636 -0.166,0.5078 -0.2929,0.7324 -0.1172,0.2148 -0.2686,0.3955 -0.4541,0.542 -0.1758,0.1465 -0.3711,0.2197 -0.586,0.2197 -0.2148,0 -0.4004,-0.0683 -0.5566,-0.2051 -0.1563,-0.1464 -0.2344,-0.3271 -0.2344,-0.542 0,-0.0097 0.0049,-0.0683 0.0147,-0.1757 0.0195,-0.1075 0.0683,-0.2198 0.1464,-0.3369 0.0782,-0.127 0.1953,-0.2393 0.3516,-0.337 0.166,-0.0976 0.3955,-0.1464 0.6885,-0.1464 z M 58.96,14.6689 c -0.127,0.254 -0.3077,0.586 -0.542,0.9961 -0.2246,0.4102 -0.4688,0.8643 -0.7325,1.3623 -0.2636,0.4883 -0.5322,1.001 -0.8056,1.5381 -0.2637,0.5371 -0.5078,1.0645 -0.7324,1.5821 -0.2149,0.5078 -0.3955,0.9912 -0.542,1.4502 -0.1367,0.4492 -0.2051,0.83 -0.2051,1.1425 0,0.3125 0.0586,0.5176 0.1758,0.6153 0.1269,0.0879 0.2881,0.1318 0.4834,0.1318 0.2832,0 0.5713,-0.083 0.8642,-0.249 0.3028,-0.166 0.5957,-0.3809 0.8789,-0.6445 0.293,-0.2637 0.5762,-0.5616 0.8496,-0.8936 0.2735,-0.332 0.5274,-0.6641 0.7618,-0.9961 0.2441,-0.3418 0.4638,-0.6641 0.6591,-0.9668 0.1954,-0.3125 0.3614,-0.5762 0.4981,-0.791 l 0.5273,0.4101 c -0.166,0.3125 -0.3613,0.6495 -0.5859,1.0108 -0.2246,0.3613 -0.4736,0.7275 -0.7471,1.0986 -0.2636,0.3613 -0.5517,0.7129 -0.8642,1.0547 -0.3125,0.3418 -0.6446,0.6445 -0.9961,0.9082 -0.3418,0.2637 -0.7032,0.4736 -1.084,0.6299 -0.3809,0.1562 -0.7715,0.2344 -1.1719,0.2344 -0.5859,0 -1.0156,-0.1758 -1.289,-0.5274 -0.2735,-0.3515 -0.4102,-0.8056 -0.4102,-1.3623 0,-0.039 0,-0.1221 0,-0.249 0.0098,-0.1367 0.0244,-0.2441 0.0439,-0.3223 -0.4882,0.6153 -0.957,1.1231 -1.4062,1.5235 -0.4395,0.4004 -0.8691,0.7177 -1.2891,0.9521 -0.4101,0.2344 -0.8105,0.3955 -1.2011,0.4834 -0.3809,0.0977 -0.7471,0.1465 -1.0987,0.1465 -0.3711,0 -0.7226,-0.0635 -1.0547,-0.1904 -0.3222,-0.1172 -0.6054,-0.293 -0.8496,-0.5274 -0.2539,-0.2343 -0.4492,-0.5224 -0.5859,-0.8642 -0.1465,-0.3418 -0.2197,-0.7373 -0.2197,-1.1866 0,-0.5566 0.1269,-1.1914 0.3808,-1.9043 0.2442,-0.7226 0.6836,-1.499 1.3184,-2.3291 0.5371,-0.7128 1.0937,-1.3134 1.6699,-1.8017 0.5859,-0.4883 1.1572,-0.8789 1.7139,-1.1719 0.5664,-0.3027 1.1035,-0.5176 1.6113,-0.6445 0.5078,-0.127 0.9619,-0.1904 1.3623,-0.1904 0.8984,0 1.5772,0.1513 2.0361,0.4541 0.459,0.2929 0.7373,0.747 0.835,1.3623 0.1953,-0.2442 0.4004,-0.4883 0.6152,-0.7325 0.2149,-0.2441 0.4346,-0.4931 0.6592,-0.747 z m -4.4971,5.5665 c 0.1269,-0.2051 0.2832,-0.4639 0.4687,-0.7764 0.1856,-0.3223 0.3809,-0.6494 0.586,-0.9815 0.2051,-0.3418 0.4053,-0.6689 0.6006,-0.9814 0.1953,-0.3125 0.3662,-0.5762 0.5127,-0.791 0,-0.0879 -0.0147,-0.2295 -0.044,-0.4248 -0.0195,-0.1953 -0.083,-0.3907 -0.1904,-0.586 -0.1074,-0.205 -0.2783,-0.3808 -0.5127,-0.5273 -0.2344,-0.1465 -0.5615,-0.2197 -0.9815,-0.2197 -0.3027,0 -0.6445,0.0488 -1.0253,0.1465 -0.3711,0.0878 -0.7715,0.2441 -1.2012,0.4687 -0.4199,0.2148 -0.8545,0.5029 -1.3037,0.8643 -0.4492,0.3613 -0.8985,0.8105 -1.3477,1.3476 -0.6738,0.8106 -1.1963,1.626 -1.5674,2.4463 -0.3613,0.8105 -0.542,1.543 -0.542,2.1973 0,0.5566 0.127,0.9863 0.3809,1.289 0.2539,0.3028 0.6152,0.4541 1.084,0.4541 0.5371,0 1.04,-0.1172 1.5088,-0.3515 0.4687,-0.2442 0.9082,-0.5567 1.3183,-0.9375 0.4102,-0.3809 0.8008,-0.8008 1.1719,-1.2598 0.3711,-0.4687 0.7324,-0.9277 1.084,-1.3769 z" />
    <path
       style="fill:#123243"
       id="path4"
       d="m 80.6797,11.4131 h 6.2695 v 0.6738 c -0.7812,0.2149 -1.4746,0.5957 -2.0801,1.1426 -0.5761,0.5273 -1.1816,1.5576 -1.8164,3.0908 -0.5273,1.2598 -1.0107,2.1777 -1.4502,2.7539 1.045,1.5039 1.8653,2.4512 2.461,2.8418 0.6054,0.4004 1.2402,0.6006 1.9043,0.6006 0.9179,0 1.626,-0.4346 2.124,-1.3037 h 0.6738 c -0.2051,0.8008 -0.6445,1.4502 -1.3183,1.9482 -0.6641,0.4883 -1.4356,0.7325 -2.3145,0.7325 -1.9043,0 -3.5791,-0.9571 -5.0244,-2.8711 -1.709,1.914 -3.5254,2.8711 -5.4492,2.8711 -0.6934,0.0097 -1.377,-0.1172 -2.0508,-0.3809 C 71.9346,23.249 71.334,22.8779 70.8066,22.3994 70.2793,21.9111 69.8545,21.335 69.5322,20.6709 69.21,19.9971 69.0586,19.2598 69.0781,18.459 c 0,-1.2207 0.3321,-2.251 0.9961,-3.0908 0.6641,-0.8301 1.9483,-1.8848 3.8526,-3.1641 -1.1426,-1.5918 -1.7139,-3.03222 -1.7139,-4.32129 0,-1.00586 0.3906,-1.90918 1.1719,-2.70996 0.7714,-0.80078 1.7529,-1.20117 2.9443,-1.20117 1.0645,0 2.0166,0.29785 2.8564,0.89355 0.8497,0.60547 1.2745,1.38672 1.2745,2.34375 0,1.50391 -1.4063,2.96392 -4.2188,4.37992 0.8789,1.1816 1.7236,2.3388 2.5342,3.4716 0.8203,1.1329 1.6162,2.251 2.3877,3.3545 0.5566,-0.7714 0.9961,-1.5771 1.3183,-2.417 0.3223,-0.83 0.4834,-1.4843 0.4834,-1.9628 0,-1.1231 -0.7617,-1.7725 -2.2851,-1.9483 z M 75.8311,11.0322 C 77.7842,9.88965 78.7607,8.6543 78.7607,7.32617 78.7607,6.93555 78.7021,6.5791 78.585,6.25684 78.4775,5.9248 78.3164,5.6416 78.1016,5.40723 77.8965,5.17285 77.6475,4.99219 77.3545,4.86523 77.0615,4.73828 76.7393,4.6748 76.3877,4.6748 c -0.7129,0 -1.2793,0.23438 -1.6992,0.70313 -0.4199,0.45898 -0.6299,1.04004 -0.6299,1.74316 0,0.95703 0.5908,2.26075 1.7725,3.91111 z m -1.4649,1.7725 c -1.0156,0.6348 -1.8017,1.3672 -2.3584,2.1973 -0.5566,0.8398 -0.8349,1.6455 -0.8349,2.4169 0,1.211 0.4833,2.3487 1.4501,3.4131 0.9668,1.0645 2.0606,1.5967 3.2813,1.5967 1.3477,0 2.6025,-0.6689 3.7646,-2.0068 -1.0351,-1.5723 -1.9921,-2.9883 -2.871,-4.2481 -0.879,-1.2695 -1.6895,-2.3926 -2.4317,-3.3691 z" />
    <path
       style="fill:#ffffff"
       id="path6"
       d="m 54.6104,35.9062 c -0.0098,0 -0.1905,0.1758 -0.542,0.5274 -0.3516,0.3418 -0.8204,0.8691 -1.4063,1.582 -0.5859,0.7032 -1.2646,1.5967 -2.0361,2.6807 -0.7617,1.0742 -1.5625,2.3437 -2.4024,3.8086 l -0.5713,0.9961 c 0.3223,-0.0781 0.6495,-0.1514 0.9815,-0.2198 0.332,-0.0683 0.6689,-0.1318 1.0107,-0.1904 l 0.6592,-0.1318 c 0.3125,-0.5664 0.5957,-1.0303 0.8496,-1.3916 0.2637,-0.3613 0.5029,-0.6445 0.7178,-0.8496 0.2246,-0.2149 0.4297,-0.3614 0.6152,-0.4395 0.1856,-0.0781 0.3516,-0.1172 0.4981,-0.1172 0.1855,0 0.3662,0.0635 0.542,0.1905 0.1757,0.1269 0.2636,0.3564 0.2636,0.6884 0,0.2637 -0.0634,0.5176 -0.1904,0.7618 -0.1269,0.2441 -0.3076,0.4736 -0.542,0.6884 -0.2344,0.2149 -0.5127,0.4053 -0.8349,0.5713 -0.3223,0.166 -0.6788,0.2979 -1.0694,0.3955 -0.1855,0.3809 -0.376,0.7813 -0.5713,1.2012 -0.1953,0.4102 -0.4004,0.8252 -0.6152,1.2451 -0.2148,0.4199 -0.4346,0.835 -0.6592,1.2451 -0.2246,0.4004 -0.459,0.7813 -0.7031,1.1426 l -1.04,-0.9814 c 0.0878,-0.1075 0.2197,-0.2784 0.3955,-0.5127 0.1855,-0.2344 0.3808,-0.4981 0.5859,-0.791 0.2148,-0.293 0.4248,-0.6006 0.6299,-0.9229 0.2051,-0.332 0.3808,-0.6445 0.5273,-0.9375 l 0.2051,-0.4394 c -0.4492,0.0976 -0.9033,0.2001 -1.3623,0.3076 -0.4492,0.0976 -0.9131,0.2099 -1.3916,0.3369 -0.752,1.289 -1.4893,2.4609 -2.2119,3.5156 -0.7129,1.0449 -1.4746,1.9434 -2.2852,2.6953 -0.8105,0.7422 -1.6992,1.3135 -2.666,1.7139 -0.9668,0.4101 -2.0801,0.6152 -3.3398,0.6152 -0.8203,0 -1.6504,-0.1172 -2.4903,-0.3515 -0.83,-0.2246 -1.582,-0.5567 -2.2558,-0.9961 -0.6641,-0.4395 -1.211,-0.9766 -1.6407,-1.6114 -0.4199,-0.6347 -0.6298,-1.3574 -0.6298,-2.1679 0,-0.6348 0.1269,-1.1963 0.3808,-1.6846 0.2442,-0.498 0.5811,-0.9131 1.0108,-1.2451 0.4297,-0.3418 0.9277,-0.5957 1.4941,-0.7617 0.5762,-0.1758 1.1816,-0.2637 1.8164,-0.2637 0.5274,0 1.0547,0.0635 1.582,0.1904 0.5372,0.127 1.0547,0.3076 1.5528,0.542 0.498,0.2344 0.9668,0.5225 1.4062,0.8643 0.4492,0.332 0.8496,0.708 1.2012,1.1279 l -0.5566,0.4248 c -0.293,-0.293 -0.6202,-0.5518 -0.9815,-0.7764 -0.3613,-0.2343 -0.7471,-0.4296 -1.1572,-0.5859 -0.4102,-0.166 -0.8301,-0.2881 -1.2598,-0.3662 -0.4297,-0.0879 -0.8545,-0.1318 -1.2744,-0.1318 -0.459,0 -0.9082,0.0585 -1.3476,0.1757 -0.4395,0.1172 -0.8301,0.3077 -1.1719,0.5713 -0.3418,0.2539 -0.6201,0.586 -0.835,0.9961 -0.2148,0.4004 -0.3222,0.8936 -0.3222,1.4795 0,0.5274 0.1318,1.0205 0.3955,1.4795 0.2636,0.459 0.6201,0.8594 1.0693,1.2012 0.459,0.332 0.9912,0.5957 1.5967,0.791 0.6152,0.1953 1.2695,0.293 1.9629,0.293 0.9863,0 1.875,-0.1856 2.666,-0.5567 0.791,-0.3613 1.5185,-0.8594 2.1826,-1.4941 0.6738,-0.6348 1.3037,-1.377 1.8896,-2.2266 0.5957,-0.8594 1.1866,-1.7724 1.7725,-2.7392 -0.2734,0.0878 -0.5518,0.1806 -0.835,0.2783 -0.2832,0.0976 -0.5664,0.2002 -0.8496,0.3076 l -0.2783,-0.7178 c 0.4492,-0.1465 0.8789,-0.2832 1.2891,-0.4101 0.4101,-0.127 0.8203,-0.2539 1.2304,-0.3809 0.5567,-0.9277 1.1329,-1.875 1.7286,-2.8418 0.6054,-0.9766 1.2646,-1.9287 1.9775,-2.8564 0.7129,-0.9375 1.4941,-1.8311 2.3438,-2.6807 0.8593,-0.8496 1.8164,-1.6211 2.871,-2.3145 z m -9.8877,7.9688 c -0.8985,0.4102 -1.792,0.708 -2.6807,0.8936 -0.8887,0.1855 -1.7236,0.2783 -2.5049,0.2783 -0.9082,0 -1.7383,-0.1221 -2.4902,-0.3662 -0.752,-0.2442 -1.4014,-0.586 -1.9483,-1.0254 -0.5468,-0.4395 -0.9716,-0.9668 -1.2744,-1.5821 -0.3027,-0.6152 -0.4541,-1.2939 -0.4541,-2.0361 0,-0.9277 0.1563,-1.7529 0.4688,-2.4756 0.3222,-0.7226 0.7568,-1.3574 1.3037,-1.9043 0.5469,-0.5566 1.1914,-1.0254 1.9336,-1.4062 0.7422,-0.3809 1.5381,-0.6934 2.3877,-0.9375 0.8496,-0.2442 1.7334,-0.4199 2.6513,-0.5274 0.918,-0.1074 1.8262,-0.1611 2.7246,-0.1611 1.0352,0 2.0411,0.0635 3.0176,0.1904 0.9766,0.127 1.9238,0.2686 2.8418,0.4248 0.9278,0.1465 1.8262,0.2832 2.6953,0.4102 0.8692,0.1269 1.7188,0.1904 2.5489,0.1904 0.9472,0 1.8212,-0.0732 2.622,-0.2197 0.8008,-0.1465 1.4893,-0.3076 2.0655,-0.4834 0.5761,-0.1856 1.0253,-0.3516 1.3476,-0.4981 0.332,-0.1562 0.5029,-0.2343 0.5127,-0.2343 l 0.3662,0.6738 c -0.0293,0.0195 -0.2197,0.1123 -0.5713,0.2783 -0.3515,0.1563 -0.83,0.3321 -1.4355,0.5274 -0.5957,0.1855 -1.3086,0.3564 -2.1387,0.5127 -0.8301,0.1464 -1.7431,0.2197 -2.7392,0.2197 -0.9278,0 -1.8213,-0.0586 -2.6807,-0.1758 -0.8594,-0.1269 -1.7285,-0.2637 -2.6074,-0.4102 -0.8692,-0.1464 -1.7725,-0.2783 -2.71,-0.3955 -0.9375,-0.1269 -1.9482,-0.1904 -3.0322,-0.1904 -1.6016,0 -3.0176,0.1563 -4.2481,0.4688 -1.2207,0.3027 -2.2461,0.7421 -3.0761,1.3183 -0.8203,0.5664 -1.4405,1.2598 -1.8604,2.0801 -0.4199,0.8105 -0.6299,1.7187 -0.6299,2.7246 0,0.6934 0.1319,1.2988 0.3955,1.8164 0.2735,0.5176 0.6348,0.9473 1.084,1.2891 0.459,0.3418 0.9815,0.6006 1.5674,0.7763 0.5957,0.1661 1.2158,0.2491 1.8604,0.2491 0.5664,0 1.1132,-0.0489 1.6406,-0.1465 0.5273,-0.0977 0.9912,-0.2051 1.3916,-0.3223 0.4004,-0.1269 0.7226,-0.2392 0.9668,-0.3369 0.2441,-0.1074 0.3711,-0.1611 0.3808,-0.1611 z m 8.1152,-0.9521 c -0.166,0 -0.3565,0.1562 -0.5713,0.4687 -0.2051,0.3027 -0.4346,0.7031 -0.6885,1.2012 0.3028,-0.1172 0.5469,-0.2393 0.7324,-0.3662 0.1856,-0.127 0.3321,-0.2539 0.4395,-0.3809 0.1074,-0.1269 0.1807,-0.2539 0.2197,-0.3809 0.0391,-0.1269 0.0586,-0.249 0.0586,-0.3662 0,-0.0683 -0.0195,-0.1123 -0.0586,-0.1318 -0.039,-0.0293 -0.083,-0.0439 -0.1318,-0.0439 z m 10.0928,5.2734 c -0.1465,0.2148 -0.3223,0.5078 -0.5274,0.8789 -0.1953,0.3613 -0.4248,0.7568 -0.6885,1.1865 -0.2636,0.4199 -0.5566,0.8496 -0.8789,1.2891 -0.3125,0.4394 -0.6591,0.8349 -1.04,1.1865 -0.3711,0.3516 -0.7764,0.6397 -1.2158,0.8643 -0.4395,0.2246 -0.9082,0.3369 -1.4063,0.3369 -0.2734,0 -0.5322,-0.044 -0.7763,-0.1319 -0.2442,-0.0781 -0.459,-0.205 -0.6446,-0.3808 -0.1855,-0.1758 -0.332,-0.3906 -0.4394,-0.6446 -0.1074,-0.2636 -0.1612,-0.5712 -0.1612,-0.9228 0,-0.4785 0.0928,-0.9766 0.2784,-1.4941 0.1953,-0.5274 0.4199,-1.0352 0.6738,-1.5235 0.2539,-0.4883 0.5078,-0.9326 0.7617,-1.333 0.2539,-0.4101 0.4395,-0.7373 0.5567,-0.9814 0.1171,-0.2442 0.1757,-0.4541 0.1757,-0.6299 0,-0.127 -0.0439,-0.2393 -0.1318,-0.3369 -0.0781,-0.0977 -0.1807,-0.1905 -0.3076,-0.2784 -0.1172,-0.0976 -0.2442,-0.1953 -0.3809,-0.2929 -0.1269,-0.1074 -0.2344,-0.2344 -0.3222,-0.3809 -0.2442,0.3906 -0.4932,0.7862 -0.7471,1.1865 -0.2246,0.3418 -0.4688,0.7276 -0.7324,1.1573 -0.2637,0.4199 -0.5176,0.8349 -0.7618,1.2451 l -0.5273,-0.4102 3.1348,-4.9072 0.4248,0.2197 c -0.0196,0.0586 -0.0537,0.1514 -0.1026,0.2784 -0.039,0.1269 -0.0586,0.2636 -0.0586,0.4101 0,0.1074 0.0147,0.2149 0.044,0.3223 0.039,0.0976 0.1123,0.1904 0.2197,0.2783 0.3906,0.3516 0.6983,0.625 0.9229,0.8203 0.2246,0.1856 0.3857,0.3369 0.4834,0.4541 0.1074,0.1074 0.1709,0.2002 0.1904,0.2783 0.0293,0.0684 0.0439,0.1612 0.0439,0.2784 0,0.1171 -0.0195,0.2587 -0.0586,0.4248 -0.039,0.166 -0.1074,0.3662 -0.205,0.6005 -0.0879,0.2344 -0.2149,0.5127 -0.3809,0.835 -0.1562,0.3125 -0.3564,0.6787 -0.6006,1.0986 -0.1465,0.2539 -0.293,0.5127 -0.4394,0.7764 -0.1368,0.2539 -0.2637,0.5127 -0.3809,0.7764 -0.1074,0.2636 -0.1953,0.5273 -0.2637,0.791 -0.0683,0.2637 -0.1025,0.5176 -0.1025,0.7617 0,0.1856 0.0244,0.3369 0.0732,0.4541 0.0586,0.1074 0.1319,0.1904 0.2198,0.249 0.0879,0.0586 0.1806,0.0977 0.2783,0.1172 0.1074,0.0195 0.2099,0.0293 0.3076,0.0293 0.3223,0 0.6396,-0.0928 0.9521,-0.2783 0.3223,-0.1953 0.6348,-0.4443 0.9375,-0.7471 0.3125,-0.3027 0.6104,-0.6445 0.8936,-1.0254 0.293,-0.3906 0.5713,-0.7861 0.835,-1.1865 0.2636,-0.4004 0.5078,-0.7812 0.7324,-1.1426 0.2246,-0.3711 0.4248,-0.6933 0.6006,-0.9668 z m 11.1035,-4.6875 c -0.127,0.2539 -0.3076,0.5859 -0.542,0.9961 -0.2246,0.4101 -0.4688,0.8642 -0.7324,1.3623 -0.2637,0.4883 -0.5323,1.001 -0.8057,1.5381 -0.2637,0.5371 -0.5078,1.0644 -0.7324,1.582 -0.2149,0.5078 -0.3955,0.9912 -0.542,1.4502 -0.1367,0.4492 -0.2051,0.8301 -0.2051,1.1426 0,0.3125 0.0586,0.5176 0.1758,0.6152 0.1269,0.0879 0.2881,0.1318 0.4834,0.1318 0.2832,0 0.5713,-0.083 0.8642,-0.249 0.3028,-0.166 0.5958,-0.3808 0.879,-0.6445 0.2929,-0.2637 0.5761,-0.5615 0.8496,-0.8936 0.2734,-0.332 0.5273,-0.664 0.7617,-0.9961 0.2441,-0.3418 0.4638,-0.664 0.6592,-0.9668 0.1953,-0.3125 0.3613,-0.5761 0.498,-0.791 l 0.5274,0.4102 c -0.1661,0.3125 -0.3614,0.6494 -0.586,1.0107 -0.2246,0.3614 -0.4736,0.7276 -0.7471,1.0987 -0.2636,0.3613 -0.5517,0.7129 -0.8642,1.0547 -0.3125,0.3417 -0.6445,0.6445 -0.9961,0.9082 -0.3418,0.2636 -0.7031,0.4736 -1.084,0.6298 -0.3809,0.1563 -0.7715,0.2344 -1.1719,0.2344 -0.5859,0 -1.0156,-0.1758 -1.289,-0.5273 -0.2735,-0.3516 -0.4102,-0.8057 -0.4102,-1.3623 0,-0.0391 0,-0.1221 0,-0.2491 0.0098,-0.1367 0.0244,-0.2441 0.044,-0.3222 -0.4883,0.6152 -0.9571,1.123 -1.4063,1.5234 -0.4394,0.4004 -0.8691,0.7178 -1.2891,0.9522 -0.4101,0.2343 -0.8105,0.3955 -1.2011,0.4834 -0.3809,0.0976 -0.7471,0.1464 -1.0987,0.1464 -0.3711,0 -0.7226,-0.0634 -1.0546,-0.1904 -0.3223,-0.1172 -0.6055,-0.293 -0.8497,-0.5273 -0.2539,-0.2344 -0.4492,-0.5225 -0.5859,-0.8643 -0.1465,-0.3418 -0.2197,-0.7373 -0.2197,-1.1865 0,-0.5567 0.1269,-1.1914 0.3808,-1.9043 0.2442,-0.7227 0.6836,-1.499 1.3184,-2.3291 0.5371,-0.7129 1.0937,-1.3135 1.6699,-1.8018 0.586,-0.4882 1.1572,-0.8789 1.7139,-1.1718 0.5664,-0.3028 1.1035,-0.5176 1.6113,-0.6446 0.5078,-0.1269 0.9619,-0.1904 1.3623,-0.1904 0.8985,0 1.5772,0.1514 2.0362,0.4541 0.4589,0.293 0.7373,0.7471 0.8349,1.3623 0.1953,-0.2441 0.4004,-0.4883 0.6152,-0.7324 0.2149,-0.2442 0.4346,-0.4932 0.6592,-0.7471 z m -4.4971,5.5664 c 0.127,-0.2051 0.2832,-0.4639 0.4688,-0.7764 0.1855,-0.3222 0.3808,-0.6494 0.5859,-0.9814 0.2051,-0.3418 0.4053,-0.669 0.6006,-0.9815 0.1953,-0.3125 0.3662,-0.5761 0.5127,-0.791 0,-0.0879 -0.0147,-0.2295 -0.044,-0.4248 -0.0195,-0.1953 -0.083,-0.3906 -0.1904,-0.5859 -0.1074,-0.2051 -0.2783,-0.3809 -0.5127,-0.5274 -0.2344,-0.1464 -0.5615,-0.2197 -0.9814,-0.2197 -0.3028,0 -0.6446,0.0488 -1.0254,0.1465 -0.3711,0.0879 -0.7715,0.2441 -1.2012,0.4687 -0.4199,0.2149 -0.8545,0.503 -1.3037,0.8643 -0.4492,0.3613 -0.8984,0.8105 -1.3477,1.3477 -0.6738,0.8105 -1.1963,1.6259 -1.5674,2.4462 -0.3613,0.8106 -0.5419,1.543 -0.5419,2.1973 0,0.5567 0.1269,0.9863 0.3808,1.2891 0.2539,0.3027 0.6153,0.4541 1.084,0.4541 0.5371,0 1.04,-0.1172 1.5088,-0.3516 0.4687,-0.2441 0.9082,-0.5566 1.3183,-0.9375 0.4102,-0.3808 0.8008,-0.8008 1.1719,-1.2598 0.3711,-0.4687 0.7324,-0.9277 1.084,-1.3769 z m 18.3545,-3.4277 c 0,0.4199 -0.0732,0.8496 -0.2197,1.289 -0.1465,0.4297 -0.3321,0.8643 -0.5567,1.3037 -0.2246,0.4297 -0.4638,0.8545 -0.7177,1.2744 -0.2539,0.42 -0.4932,0.8252 -0.7178,1.2159 -0.2246,0.3906 -0.4102,0.7666 -0.5567,1.1279 -0.1464,0.3516 -0.2197,0.6738 -0.2197,0.9668 0,0.2246 0.0488,0.376 0.1465,0.4541 0.0977,0.0781 0.2051,0.1172 0.3223,0.1172 0.3711,0 0.7861,-0.1807 1.2451,-0.542 0.459,-0.3711 0.9228,-0.835 1.3916,-1.3916 0.4785,-0.5567 0.9521,-1.1621 1.4209,-1.8164 0.4687,-0.6543 0.8935,-1.2744 1.2744,-1.8604 l 0.5273,0.4102 c -0.0781,0.1172 -0.2197,0.3516 -0.4248,0.7031 -0.205,0.3418 -0.4589,0.7373 -0.7617,1.1865 -0.3027,0.4395 -0.6445,0.9034 -1.0254,1.3916 -0.3711,0.4786 -0.7715,0.9229 -1.2011,1.333 -0.4297,0.4004 -0.8741,0.7325 -1.333,0.9961 -0.4493,0.2637 -0.9034,0.3955 -1.3624,0.3955 -0.2636,0 -0.5029,-0.0439 -0.7177,-0.1318 -0.2149,-0.0879 -0.4004,-0.2099 -0.5567,-0.3662 -0.1465,-0.1562 -0.2636,-0.3369 -0.3515,-0.542 -0.0879,-0.2148 -0.1319,-0.4394 -0.1319,-0.6738 0,-0.3809 0.083,-0.791 0.2491,-1.2305 0.1757,-0.4492 0.3906,-0.9082 0.6445,-1.3769 0.2539,-0.4688 0.5322,-0.9375 0.835,-1.4063 0.3027,-0.4785 0.581,-0.9326 0.8349,-1.3623 0.2539,-0.4297 0.4639,-0.8252 0.6299,-1.1865 0.1758,-0.3711 0.2637,-0.6885 0.2637,-0.9522 0,-0.3027 -0.083,-0.5566 -0.2491,-0.7617 -0.1562,-0.2051 -0.3808,-0.3076 -0.6738,-0.3076 -0.3125,0 -0.6738,0.1318 -1.084,0.3955 -0.4101,0.2539 -0.8691,0.6299 -1.3769,1.1279 -0.5078,0.4981 -1.0645,1.1133 -1.6699,1.8457 -0.5957,0.7227 -1.2452,1.5479 -1.9483,2.4756 -0.4004,0.5371 -0.791,1.0547 -1.1719,1.5528 -0.166,0.2148 -0.332,0.4345 -0.498,0.6591 -0.166,0.2246 -0.332,0.4493 -0.4981,0.6739 -0.166,0.2148 -0.3222,0.4199 -0.4687,0.6152 -0.1465,0.2051 -0.2783,0.3809 -0.3955,0.5273 L 75.499,53.25 77.2129,50.8916 c 0.2441,-0.332 0.4932,-0.6885 0.7471,-1.0693 0.2539,-0.3809 0.5029,-0.7715 0.747,-1.1719 0.2539,-0.4102 0.4932,-0.8203 0.7178,-1.2305 0.2246,-0.4101 0.4346,-0.8105 0.6299,-1.2011 0.2832,-0.586 0.4785,-1.0694 0.5859,-1.4502 0.1074,-0.3907 0.1612,-0.7032 0.1612,-0.9375 0,-0.2637 -0.0489,-0.4346 -0.1465,-0.5127 -0.0977,-0.0879 -0.2344,-0.1319 -0.4102,-0.1319 -0.1855,0 -0.4004,0.0977 -0.6445,0.293 -0.2344,0.1855 -0.4785,0.4297 -0.7324,0.7324 -0.2539,0.293 -0.5127,0.6299 -0.7764,1.0108 -0.2539,0.3711 -0.498,0.7421 -0.7324,1.1132 -0.2344,0.3711 -0.4541,0.7227 -0.6592,1.0547 -0.2051,0.3321 -0.376,0.6006 -0.5127,0.8057 l -0.5273,-0.4102 c 0.498,-0.7812 0.9472,-1.4941 1.3476,-2.1386 0.4102,-0.6543 0.8008,-1.2159 1.1719,-1.6846 0.3808,-0.4688 0.7471,-0.8301 1.0986,-1.084 0.3613,-0.2637 0.7422,-0.3955 1.1426,-0.3955 0.2148,0 0.4199,0.0439 0.6152,0.1318 0.2051,0.0879 0.3809,0.2198 0.5274,0.3955 0.1562,0.1661 0.2783,0.3711 0.3662,0.6153 0.0879,0.2441 0.1318,0.5273 0.1318,0.8496 0,0.2539 -0.0293,0.5176 -0.0879,0.791 0.4297,-0.4199 0.8301,-0.7666 1.2012,-1.04 0.3711,-0.2735 0.7129,-0.4883 1.0254,-0.6446 0.3125,-0.166 0.6006,-0.2832 0.8643,-0.3515 0.2636,-0.0684 0.5029,-0.1026 0.7177,-0.1026 0.1856,0 0.4004,0.0342 0.6446,0.1026 0.2441,0.0683 0.4736,0.1953 0.6884,0.3808 0.2149,0.1856 0.3955,0.4444 0.542,0.7764 0.1563,0.3223 0.2344,0.7422 0.2344,1.2598 z m 11.0889,-1.2891 c 0.0586,-0.1563 0.0879,-0.3223 0.0879,-0.498 0,-0.3125 -0.127,-0.5567 -0.3809,-0.7325 -0.2441,-0.1855 -0.6348,-0.2783 -1.1719,-0.2783 -0.4394,0 -0.8838,0.0977 -1.333,0.293 -0.4394,0.1855 -0.8642,0.4443 -1.2744,0.7763 -0.4102,0.3321 -0.7959,0.7276 -1.1572,1.1866 -0.3516,0.459 -0.6592,0.957 -0.9229,1.4941 -0.2539,0.5371 -0.459,1.1084 -0.6152,1.7139 -0.1465,0.5957 -0.2197,1.1963 -0.2197,1.8017 0,0.4883 0.0537,0.9034 0.1611,1.2452 0.1074,0.3417 0.2588,0.6201 0.4541,0.8349 0.1953,0.2149 0.4297,0.3711 0.7031,0.4688 0.2735,0.0879 0.5811,0.1318 0.9229,0.1318 0.6738,0 1.3281,-0.1514 1.9629,-0.4541 0.6347,-0.3027 1.2353,-0.6934 1.8017,-1.1719 0.5762,-0.4883 1.1035,-1.0303 1.5821,-1.626 0.4879,-0.5957 0.9179,-1.1816 1.2889,-1.7578 l 0.542,0.4102 c -0.527,0.8887 -1.089,1.6699 -1.6845,2.3437 -0.5957,0.6641 -1.206,1.2207 -1.831,1.67 -0.625,0.4492 -1.2598,0.7861 -1.9043,1.0107 -0.6445,0.2246 -1.2744,0.3369 -1.8897,0.3369 -0.4882,0 -0.957,-0.0732 -1.4062,-0.2197 -0.4395,-0.1465 -0.8301,-0.3662 -1.1719,-0.6592 -0.332,-0.3027 -0.6006,-0.6885 -0.8056,-1.1572 -0.1954,-0.4688 -0.293,-1.0254 -0.293,-1.6699 0,-0.7618 0.1074,-1.4795 0.3222,-2.1534 0.2247,-0.6836 0.5176,-1.3134 0.879,-1.8896 0.371,-0.5762 0.7959,-1.0938 1.2744,-1.5527 0.4785,-0.4688 0.9765,-0.8643 1.4941,-1.1866 0.5274,-0.3222 1.0547,-0.5664 1.582,-0.7324 0.5371,-0.1758 1.0401,-0.2637 1.5088,-0.2637 0.4785,0 0.8692,0.0684 1.1719,0.2051 0.3027,0.127 0.542,0.2832 0.7178,0.4688 0.1758,0.1855 0.2929,0.3808 0.3515,0.5859 0.0684,0.2051 0.1026,0.3809 0.1026,0.5274 0,0.2343 -0.0342,0.4834 -0.1026,0.747 -0.0683,0.2637 -0.166,0.5078 -0.2929,0.7324 -0.1172,0.2149 -0.2686,0.3956 -0.4541,0.542 -0.1758,0.1465 -0.3711,0.2198 -0.586,0.2198 -0.2148,0 -0.4004,-0.0684 -0.5566,-0.2051 -0.1563,-0.1465 -0.2344,-0.3272 -0.2344,-0.542 0,-0.0098 0.0049,-0.0684 0.0147,-0.1758 0.0195,-0.1074 0.0683,-0.2197 0.1464,-0.3369 0.0782,-0.127 0.1954,-0.2393 0.3516,-0.3369 0.166,-0.0977 0.3955,-0.1465 0.6885,-0.1465 z m 3.0175,5.5518 c -0.019,0.1171 -0.034,0.2343 -0.044,0.3515 -0.01,0.1172 -0.015,0.2344 -0.015,0.3516 0,0.3515 0.049,0.6885 0.147,1.0107 0.107,0.3125 0.259,0.5908 0.454,0.835 0.205,0.2344 0.454,0.4199 0.747,0.5566 0.303,0.1367 0.645,0.2051 1.025,0.2051 1.28,0 2.515,-0.4346 3.707,-1.3037 1.191,-0.8691 2.377,-2.2461 3.559,-4.1309 l 0.498,0.4395 c -0.644,1.0742 -1.299,1.9824 -1.963,2.7246 -0.664,0.7324 -1.328,1.3281 -1.992,1.7871 -0.654,0.459 -1.299,0.791 -1.933,0.9961 -0.635,0.2051 -1.241,0.3076 -1.817,0.3076 -0.42,0 -0.864,-0.0586 -1.333,-0.1758 -0.469,-0.1172 -0.903,-0.3125 -1.304,-0.5859 -0.39,-0.2734 -0.713,-0.6397 -0.966,-1.0986 -0.264,-0.459 -0.396,-1.0303 -0.396,-1.7139 0,-0.7324 0.127,-1.4356 0.381,-2.1094 0.244,-0.6836 0.566,-1.3183 0.967,-1.9043 0.4,-0.5859 0.859,-1.1181 1.377,-1.5967 0.517,-0.4882 1.04,-0.9033 1.567,-1.2451 0.537,-0.3418 1.06,-0.6054 1.567,-0.791 0.508,-0.1953 0.957,-0.293 1.348,-0.293 0.254,0 0.513,0.0391 0.776,0.1172 0.264,0.0782 0.499,0.2002 0.704,0.3662 0.214,0.1661 0.385,0.3858 0.512,0.6592 0.137,0.2735 0.205,0.6006 0.205,0.9815 0,0.5175 -0.122,1.0058 -0.366,1.4648 -0.234,0.4492 -0.552,0.8692 -0.952,1.2598 -0.4,0.3808 -0.864,0.7275 -1.392,1.04 -0.527,0.3028 -1.079,0.5615 -1.655,0.7764 -0.576,0.2148 -1.157,0.3857 -1.743,0.5127 -0.586,0.1269 -1.143,0.1953 -1.67,0.2051 z m 0.117,-0.6299 c 0.655,-0.0684 1.27,-0.2051 1.846,-0.4102 0.576,-0.2051 1.103,-0.4541 1.582,-0.7471 0.478,-0.3027 0.903,-0.6298 1.274,-0.9814 0.381,-0.3516 0.699,-0.708 0.953,-1.0693 0.253,-0.3614 0.449,-0.708 0.585,-1.0401 0.137,-0.332 0.206,-0.6299 0.206,-0.8935 0,-0.2637 -0.074,-0.4737 -0.22,-0.6299 -0.137,-0.1563 -0.303,-0.2344 -0.498,-0.2344 -0.43,0 -0.913,0.1563 -1.45,0.4688 -0.538,0.3027 -1.075,0.7275 -1.612,1.2744 -0.537,0.5371 -1.045,1.1719 -1.523,1.9043 -0.469,0.7324 -0.85,1.5185 -1.143,2.3584 z M 116.28,41.751 c -0.049,0.0879 -0.112,0.1855 -0.19,0.2929 -0.078,0.0977 -0.156,0.2149 -0.235,0.3516 -0.068,0.127 -0.131,0.2783 -0.19,0.4541 -0.049,0.1758 -0.073,0.3858 -0.073,0.6299 0,0.2051 0.049,0.4834 0.146,0.835 0.108,0.3515 0.22,0.7568 0.337,1.2158 0.117,0.4492 0.225,0.9424 0.322,1.4795 0.108,0.5273 0.162,1.0742 0.162,1.6406 0,0.8301 -0.113,1.5625 -0.337,2.1973 -0.225,0.6347 -0.523,1.1767 -0.894,1.6259 0.762,-0.4101 1.509,-0.9961 2.241,-1.7578 0.733,-0.7715 1.47,-1.748 2.212,-2.9297 l 0.498,0.4395 c -0.42,0.6933 -0.898,1.3818 -1.435,2.0654 -0.528,0.6738 -1.109,1.2842 -1.743,1.8311 -0.635,0.5371 -1.319,0.9717 -2.051,1.3037 -0.733,0.3418 -1.509,0.5127 -2.329,0.5127 -0.733,0 -1.348,-0.1758 -1.846,-0.5274 -0.508,-0.3418 -0.82,-0.8593 -0.937,-1.5527 l 0.527,-0.1025 c 0,0.0586 0.029,0.1562 0.088,0.2929 0.049,0.127 0.132,0.2539 0.249,0.3809 0.117,0.1269 0.278,0.2392 0.483,0.3369 0.195,0.0977 0.44,0.1465 0.733,0.1465 0.39,0 0.737,-0.0879 1.04,-0.2637 0.302,-0.1855 0.566,-0.4248 0.791,-0.7178 0.224,-0.2929 0.415,-0.625 0.571,-0.9961 0.156,-0.3808 0.278,-0.7714 0.366,-1.1718 0.098,-0.4004 0.166,-0.791 0.205,-1.1719 0.039,-0.3809 0.059,-0.7275 0.059,-1.04 0,-0.3125 -0.015,-0.6592 -0.044,-1.0401 -0.02,-0.3808 -0.044,-0.7422 -0.073,-1.084 -0.03,-0.3515 -0.059,-0.6543 -0.088,-0.9082 -0.02,-0.2636 -0.03,-0.4345 -0.03,-0.5127 v -0.0293 c -0.127,0.1368 -0.278,0.337 -0.454,0.6006 -0.175,0.2637 -0.366,0.5518 -0.571,0.8643 -0.195,0.3125 -0.395,0.6299 -0.601,0.9521 -0.195,0.3223 -0.376,0.6153 -0.542,0.8789 -0.156,0.2637 -0.288,0.4834 -0.395,0.6592 -0.098,0.166 -0.147,0.2539 -0.147,0.2637 l -0.527,-0.4102 c 0.01,-0.0097 0.132,-0.2197 0.366,-0.6299 0.235,-0.4101 0.542,-0.9277 0.923,-1.5527 0.391,-0.6347 0.83,-1.333 1.319,-2.0947 0.488,-0.7715 0.991,-1.5186 1.508,-2.2412 z m 11.763,2.6074 c 0.059,-0.1563 0.088,-0.3223 0.088,-0.498 0,-0.3125 -0.127,-0.5567 -0.381,-0.7325 -0.244,-0.1855 -0.635,-0.2783 -1.172,-0.2783 -0.439,0 -0.884,0.0977 -1.333,0.293 -0.439,0.1855 -0.864,0.4443 -1.274,0.7763 -0.41,0.3321 -0.796,0.7276 -1.158,1.1866 -0.351,0.459 -0.659,0.957 -0.922,1.4941 -0.254,0.5371 -0.459,1.1084 -0.616,1.7139 -0.146,0.5957 -0.219,1.1963 -0.219,1.8017 0,0.4883 0.053,0.9034 0.161,1.2452 0.107,0.3417 0.259,0.6201 0.454,0.8349 0.195,0.2149 0.43,0.3711 0.703,0.4688 0.273,0.0879 0.581,0.1318 0.923,0.1318 0.674,0 1.328,-0.1514 1.963,-0.4541 0.635,-0.3027 1.235,-0.6934 1.802,-1.1719 0.576,-0.4883 1.103,-1.0303 1.582,-1.626 0.488,-0.5957 0.918,-1.1816 1.289,-1.7578 l 0.542,0.4102 c -0.528,0.8887 -1.089,1.6699 -1.685,2.3437 -0.596,0.6641 -1.206,1.2207 -1.831,1.67 -0.625,0.4492 -1.26,0.7861 -1.904,1.0107 -0.645,0.2246 -1.275,0.3369 -1.89,0.3369 -0.488,0 -0.957,-0.0732 -1.406,-0.2197 -0.44,-0.1465 -0.83,-0.3662 -1.172,-0.6592 -0.332,-0.3027 -0.601,-0.6885 -0.806,-1.1572 -0.195,-0.4688 -0.293,-1.0254 -0.293,-1.6699 0,-0.7618 0.108,-1.4795 0.323,-2.1534 0.224,-0.6836 0.517,-1.3134 0.878,-1.8896 0.372,-0.5762 0.796,-1.0938 1.275,-1.5527 0.478,-0.4688 0.976,-0.8643 1.494,-1.1866 0.527,-0.3222 1.055,-0.5664 1.582,-0.7324 0.537,-0.1758 1.04,-0.2637 1.509,-0.2637 0.478,0 0.869,0.0684 1.172,0.2051 0.302,0.127 0.542,0.2832 0.717,0.4688 0.176,0.1855 0.293,0.3808 0.352,0.5859 0.068,0.2051 0.103,0.3809 0.103,0.5274 0,0.2343 -0.035,0.4834 -0.103,0.747 -0.068,0.2637 -0.166,0.5078 -0.293,0.7324 -0.117,0.2149 -0.268,0.3956 -0.454,0.542 -0.176,0.1465 -0.371,0.2198 -0.586,0.2198 -0.215,0 -0.4,-0.0684 -0.557,-0.2051 -0.156,-0.1465 -0.234,-0.3272 -0.234,-0.542 0,-0.0098 0.005,-0.0684 0.015,-0.1758 0.019,-0.1074 0.068,-0.2197 0.146,-0.3369 0.078,-0.127 0.195,-0.2393 0.352,-0.3369 0.166,-0.0977 0.395,-0.1465 0.688,-0.1465 z m 13.55,-0.8496 c -0.127,0.2539 -0.308,0.5859 -0.542,0.9961 -0.225,0.4101 -0.469,0.8642 -0.733,1.3623 -0.263,0.4883 -0.532,1.001 -0.805,1.5381 -0.264,0.5371 -0.508,1.0644 -0.733,1.582 -0.215,0.5078 -0.395,0.9912 -0.542,1.4502 -0.136,0.4492 -0.205,0.8301 -0.205,1.1426 0,0.3125 0.059,0.5176 0.176,0.6152 0.127,0.0879 0.288,0.1318 0.483,0.1318 0.284,0 0.572,-0.083 0.865,-0.249 0.302,-0.166 0.595,-0.3808 0.879,-0.6445 0.293,-0.2637 0.576,-0.5615 0.849,-0.8936 0.274,-0.332 0.527,-0.664 0.762,-0.9961 0.244,-0.3418 0.464,-0.664 0.659,-0.9668 0.195,-0.3125 0.361,-0.5761 0.498,-0.791 l 0.527,0.4102 c -0.166,0.3125 -0.361,0.6494 -0.585,1.0107 -0.225,0.3614 -0.474,0.7276 -0.748,1.0987 -0.263,0.3613 -0.551,0.7129 -0.864,1.0547 -0.312,0.3417 -0.644,0.6445 -0.996,0.9082 -0.342,0.2636 -0.703,0.4736 -1.084,0.6298 -0.381,0.1563 -0.771,0.2344 -1.172,0.2344 -0.586,0 -1.015,-0.1758 -1.289,-0.5273 -0.273,-0.3516 -0.41,-0.8057 -0.41,-1.3623 0,-0.0391 0,-0.1221 0,-0.2491 0.01,-0.1367 0.024,-0.2441 0.044,-0.3222 -0.488,0.6152 -0.957,1.123 -1.406,1.5234 -0.44,0.4004 -0.869,0.7178 -1.289,0.9522 -0.411,0.2343 -0.811,0.3955 -1.202,0.4834 -0.38,0.0976 -0.747,0.1464 -1.098,0.1464 -0.371,0 -0.723,-0.0634 -1.055,-0.1904 -0.322,-0.1172 -0.605,-0.293 -0.849,-0.5273 -0.254,-0.2344 -0.45,-0.5225 -0.586,-0.8643 -0.147,-0.3418 -0.22,-0.7373 -0.22,-1.1865 0,-0.5567 0.127,-1.1914 0.381,-1.9043 0.244,-0.7227 0.683,-1.499 1.318,-2.3291 0.537,-0.7129 1.094,-1.3135 1.67,-1.8018 0.586,-0.4882 1.157,-0.8789 1.714,-1.1718 0.566,-0.3028 1.103,-0.5176 1.611,-0.6446 0.508,-0.1269 0.962,-0.1904 1.363,-0.1904 0.898,0 1.577,0.1514 2.036,0.4541 0.459,0.293 0.737,0.7471 0.835,1.3623 0.195,-0.2441 0.4,-0.4883 0.615,-0.7324 0.215,-0.2442 0.434,-0.4932 0.659,-0.7471 z m -4.497,5.5664 c 0.127,-0.2051 0.283,-0.4639 0.468,-0.7764 0.186,-0.3222 0.381,-0.6494 0.586,-0.9814 0.205,-0.3418 0.406,-0.669 0.601,-0.9815 0.195,-0.3125 0.366,-0.5761 0.513,-0.791 0,-0.0879 -0.015,-0.2295 -0.044,-0.4248 -0.02,-0.1953 -0.083,-0.3906 -0.191,-0.5859 -0.107,-0.2051 -0.278,-0.3809 -0.512,-0.5274 -0.235,-0.1464 -0.562,-0.2197 -0.982,-0.2197 -0.303,0 -0.644,0.0488 -1.025,0.1465 -0.371,0.0879 -0.772,0.2441 -1.201,0.4687 -0.42,0.2149 -0.855,0.503 -1.304,0.8643 -0.449,0.3613 -0.899,0.8105 -1.348,1.3477 -0.674,0.8105 -1.196,1.6259 -1.567,2.4462 -0.361,0.8106 -0.542,1.543 -0.542,2.1973 0,0.5567 0.127,0.9863 0.381,1.2891 0.254,0.3027 0.615,0.4541 1.084,0.4541 0.537,0 1.04,-0.1172 1.508,-0.3516 0.469,-0.2441 0.909,-0.5566 1.319,-0.9375 0.41,-0.3808 0.801,-0.8008 1.172,-1.2598 0.371,-0.4687 0.732,-0.9277 1.084,-1.3769 z" />
  </g>
  <defs
     id="defs13">
    <clipPath
       id="clip0_3_59">
      <rect
         style="fill:#ffffff"
         y="0"
         x="0"
         id="rect10"
         height="68.650002"
         width="143.67" />
    </clipPath>
  </defs>
</svg>
